<?xml version="1.0" encoding="UTF-8"?>
<svg xmlns="http://www.w3.org/2000/svg" xmlns:xlink="http://www.w3.org/1999/xlink" width="18pt" height="18pt"
    viewBox="0 0 18 18" version="1.1">
    <g id="surface1">
        <path style=" stroke:none;fill-rule:nonzero;fill:white;fill-opacity:1;"
            d="M 6.75 9.75 C 6.75 10.992188 7.757812 12 9 12 C 10.242188 12 11.25 10.992188 11.25 9.75 C 11.25 8.507812 10.242188 7.5 9 7.5 C 7.757812 7.5 6.75 8.507812 6.75 9.75 M 15 14.691406 L 15 6 L 10.5 1.5 L 4.5 1.5 C 3.671875 1.5 3 2.171875 3 3 L 3 15 C 3 15.828125 3.671875 16.5 4.5 16.5 L 13.5 16.5 C 13.835938 16.5 14.136719 16.386719 14.390625 16.199219 L 11.070312 12.878906 C 10.46875 13.265625 9.75 13.5 9 13.5 C 6.929688 13.5 5.25 11.820312 5.25 9.75 C 5.25 7.679688 6.929688 6 9 6 C 11.070312 6 12.75 7.679688 12.75 9.75 C 12.75 10.5 12.515625 11.21875 12.128906 11.8125 Z M 15 14.691406 " />
    </g>
</svg>