<?xml version="1.0" encoding="UTF-8"?>
<svg xmlns="http://www.w3.org/2000/svg" xmlns:xlink="http://www.w3.org/1999/xlink" width="18pt" height="18pt"
    viewBox="0 0 18 18" version="1.1">
    <g id="surface1">
        <path style=" stroke:none;fill-rule:nonzero;fill:white;fill-opacity:1;"
            d="M 14.25 13.734375 L 14.25 15 C 14.25 15.828125 13.578125 16.5 12.75 16.5 L 5.25 16.5 C 4.421875 16.5 3.75 15.828125 3.75 15 L 3.75 12.226562 C 3.40625 12.089844 2.960938 12 2.25 12 C 1.835938 12 1.5 11.664062 1.5 11.25 C 1.5 10.835938 1.835938 10.5 2.25 10.5 C 2.863281 10.5 3.351562 10.558594 3.75 10.65625 L 3.75 9.226562 C 3.40625 9.089844 2.960938 9 2.25 9 C 1.835938 9 1.5 8.664062 1.5 8.25 C 1.5 7.835938 1.835938 7.5 2.25 7.5 C 2.863281 7.5 3.351562 7.558594 3.75 7.65625 L 3.75 6.226562 C 3.40625 6.089844 2.960938 6 2.25 6 C 1.835938 6 1.5 5.664062 1.5 5.25 C 1.5 4.835938 1.835938 4.5 2.25 4.5 C 2.863281 4.5 3.351562 4.558594 3.75 4.65625 L 3.75 3 C 3.75 2.171875 4.421875 1.5 5.25 1.5 L 12.75 1.5 C 13.578125 1.5 14.25 2.171875 14.25 3 L 14.25 4.621094 C 15.585938 4.851562 16.15625 5.347656 16.28125 5.46875 C 16.574219 5.761719 16.574219 6.238281 16.28125 6.53125 C 15.988281 6.824219 15.601562 6.816406 15.21875 6.53125 C 15.21875 6.53125 14.4375 6 12.75 6 C 11.804688 6 11.183594 6.308594 10.460938 6.675781 C 9.683594 7.058594 8.804688 7.5 7.5 7.5 C 7.230469 7.5 6.984375 7.5 6.75 7.46875 L 6.75 5.960938 C 6.976562 6 7.222656 6 7.5 6 C 8.445312 6 9.066406 5.691406 9.789062 5.332031 C 10.566406 4.941406 11.453125 4.5 12.75 4.5 L 12.75 3 L 5.25 3 L 5.25 15 L 12.75 15 L 12.75 13.5 C 13.875 13.5 14.226562 13.71875 14.25 13.734375 M 12.75 7.5 C 11.453125 7.5 10.566406 7.941406 9.789062 8.332031 C 9.066406 8.691406 8.445312 9 7.5 9 C 7.222656 9 6.976562 9 6.75 8.960938 L 6.75 10.46875 C 6.984375 10.5 7.230469 10.5 7.5 10.5 C 8.804688 10.5 9.683594 10.058594 10.460938 9.675781 C 11.183594 9.316406 11.804688 9 12.75 9 C 14.4375 9 15.21875 9.53125 15.21875 9.53125 C 15.601562 9.824219 15.988281 9.824219 16.28125 9.53125 C 16.574219 9.238281 16.574219 8.765625 16.28125 8.46875 C 16.125 8.308594 15.1875 7.5 12.75 7.5 M 12.75 10.5 C 11.453125 10.5 10.566406 10.941406 9.789062 11.332031 C 9.066406 11.691406 8.445312 12 7.5 12 C 7.222656 12 6.976562 12 6.75 11.960938 L 6.75 13.46875 C 6.984375 13.5 7.230469 13.5 7.5 13.5 C 8.804688 13.5 9.683594 13.058594 10.460938 12.675781 C 11.183594 12.316406 11.804688 12 12.75 12 C 14.4375 12 15.21875 12.53125 15.21875 12.53125 C 15.601562 12.824219 15.988281 12.824219 16.28125 12.53125 C 16.574219 12.238281 16.574219 11.765625 16.28125 11.46875 C 16.125 11.308594 15.1875 10.5 12.75 10.5 Z M 12.75 10.5 " />
    </g>
</svg>