<?xml version="1.0" encoding="UTF-8"?>
<svg xmlns="http://www.w3.org/2000/svg" xmlns:xlink="http://www.w3.org/1999/xlink" width="18pt" height="18pt"
    viewBox="0 0 18 18" version="1.1">
    <g id="surface1">
        <path style=" stroke:none;fill-rule:nonzero;fill:white;fill-opacity:1;"
            d="M 9.75 1.523438 L 9.75 3.039062 C 13.042969 3.441406 15.375 6.433594 14.96875 9.726562 C 14.625 12.457031 12.480469 14.625 9.75 14.949219 L 9.75 16.449219 C 13.875 16.035156 16.875 12.375 16.460938 8.25 C 16.125 4.6875 13.296875 1.875 9.75 1.523438 M 8.25 1.546875 C 6.789062 1.6875 5.390625 2.25 4.253906 3.195312 L 5.324219 4.304688 C 6.164062 3.628906 7.175781 3.195312 8.25 3.046875 L 8.25 1.546875 M 3.195312 4.253906 C 2.25 5.390625 1.6875 6.78125 1.539062 8.25 L 3.039062 8.25 C 3.179688 7.183594 3.601562 6.171875 4.265625 5.324219 L 3.195312 4.253906 M 11.625 6.375 L 7.964844 10.035156 L 6.375 8.445312 L 5.578125 9.238281 L 7.964844 11.625 L 12.421875 7.171875 L 11.625 6.375 M 1.546875 9.75 C 1.695312 11.21875 2.273438 12.609375 3.203125 13.746094 L 4.265625 12.675781 C 3.609375 11.828125 3.179688 10.816406 3.046875 9.75 L 1.546875 9.75 M 5.324219 13.777344 L 4.253906 14.804688 C 5.386719 15.75 6.78125 16.34375 8.25 16.5 L 8.25 15 C 7.183594 14.863281 6.171875 14.4375 5.324219 13.777344 Z M 5.324219 13.777344 " />
    </g>
</svg>