<?xml version="1.0" ?><svg viewBox="0 0 32 32" xmlns="http://www.w3.org/2000/svg"><title/><g id="crutch"><path d="M30.71,9.06,26.82,5.17,23.71,2.06h0l-.78-.78a1,1,0,0,0-1.41,0L18.4,4.39a1,1,0,0,0,0,1.42l.07.07L15.29,9.06h0l-.77.78a5.36,5.36,0,0,0-.64,6.86L7.44,23.14l-.84-.85a1,1,0,0,0-1.23-.15L1.49,24.47a1,1,0,0,0-.48.74,1,1,0,0,0,.28.83L6,30.71a1,1,0,0,0,.71.29h.12a1,1,0,0,0,.73-.48l2.34-3.89a1,1,0,0,0-.15-1.22l-.85-.85,6.43-6.43a5.4,5.4,0,0,0,6.86-.64l.78-.78h0l3.18-3.18.07.07a1,1,0,0,0,.71.29,1,1,0,0,0,.71-.29l3.11-3.11A1.05,1.05,0,0,0,31,9.77,1,1,0,0,0,30.71,9.06Zm-14.78,7a3.37,3.37,0,0,1-1-2.4,3.41,3.41,0,0,1,1-2.41l.07-.07L20.81,16l-.07.07A3.47,3.47,0,0,1,15.93,16.06Zm6.29-1.48L17.41,9.77l2.48-2.48L24.7,12.1Z"/></g></svg>