<?xml version="1.0" ?><svg id="Layer_1" style="enable-background:new 0 0 256 256;" version="1.1" viewBox="0 0 256 256" xml:space="preserve" xmlns="http://www.w3.org/2000/svg" xmlns:xlink="http://www.w3.org/1999/xlink"><g><path d="M236.6,95c0-11.1-9.1-20.2-20.2-20.2c-11.1,0-20.2,9.1-20.2,20.2c0,3.7,1.1,7.2,2.9,10.2l-27.2,27.2   c-2.8-1.4-5.9-2.3-9.2-2.3c-4.2,0-8,1.3-11.3,3.4l-27.3-27.2c2.2-3.2,3.5-7.1,3.5-11.3c0-11.1-9.1-20.2-20.2-20.2   c-11.1,0-20.2,9.1-20.2,20.2c0,3.3,0.9,6.4,2.3,9.1l-28.9,28.9c-3-1.8-6.5-2.9-10.2-2.9c-11.1,0-20.2,9.1-20.2,20.2   c0,11.1,9.1,20.2,20.2,20.2s20.2-9.1,20.2-20.2c0-3.7-1.1-7.2-2.9-10.2l28.4-28.4c3.2,2.2,7.1,3.5,11.3,3.5c3.3,0,6.4-0.9,9.1-2.3   l28.2,28.2c-1.4,2.8-2.3,5.9-2.3,9.2c0,11.1,9.1,20.2,20.2,20.2c11.1,0,20.2-9.1,20.2-20.2c0-4.2-1.3-8.1-3.4-11.3l26.7-26.7   c3,1.8,6.5,2.9,10.2,2.9C227.5,115.2,236.6,106.1,236.6,95z M50.4,160.4c-5.6,0-10.2-4.6-10.2-10.2c0-5.6,4.6-10.2,10.2-10.2   c2.8,0,5.3,1.1,7.2,3c0,0,0,0,0,0c0,0,0,0,0,0c1.8,1.8,3,4.4,3,7.2C60.6,155.9,56,160.4,50.4,160.4z M107.4,105.1   c-5.6,0-10.2-4.6-10.2-10.2c0-5.6,4.6-10.2,10.2-10.2c5.6,0,10.2,4.6,10.2,10.2C117.6,100.6,113,105.1,107.4,105.1z M162.7,160.4   c-5.6,0-10.2-4.6-10.2-10.2c0-5.6,4.6-10.2,10.2-10.2c5.6,0,10.2,4.6,10.2,10.2C172.8,155.9,168.3,160.4,162.7,160.4z M209.2,102.1   C209.2,102.1,209.2,102.1,209.2,102.1c-1.8-1.8-3-4.4-3-7.2c0-5.6,4.6-10.2,10.2-10.2s10.2,4.6,10.2,10.2c0,5.6-4.6,10.2-10.2,10.2   C213.6,105.1,211,104,209.2,102.1L209.2,102.1z"/><path d="M9.5,212.7c3,0,5.4-2.4,5.4-5.4V22.1c0-3-2.4-5.4-5.4-5.4s-5.4,2.4-5.4,5.4v185.2C4.1,210.3,6.5,212.7,9.5,212.7z"/><path d="M37.7,228.5H9.5c-3,0-5.4,2.4-5.4,5.4s2.4,5.4,5.4,5.4h28.3c3,0,5.4-2.4,5.4-5.4S40.7,228.5,37.7,228.5z"/><path d="M89.9,228.5H61.7c-3,0-5.4,2.4-5.4,5.4s2.4,5.4,5.4,5.4h28.3c3,0,5.4-2.4,5.4-5.4S92.9,228.5,89.9,228.5z"/><path d="M142.1,228.5h-28.3c-3,0-5.4,2.4-5.4,5.4s2.4,5.4,5.4,5.4h28.3c3,0,5.4-2.4,5.4-5.4S145.1,228.5,142.1,228.5z"/><path d="M194.3,228.5h-28.3c-3,0-5.4,2.4-5.4,5.4s2.4,5.4,5.4,5.4h28.3c3,0,5.4-2.4,5.4-5.4S197.3,228.5,194.3,228.5z"/><path d="M246.5,228.5h-28.3c-3,0-5.4,2.4-5.4,5.4s2.4,5.4,5.4,5.4h28.3c3,0,5.4-2.4,5.4-5.4S249.5,228.5,246.5,228.5z"/></g></svg>