<?xml version="1.0" encoding="UTF-8"?>
<svg xmlns="http://www.w3.org/2000/svg" xmlns:xlink="http://www.w3.org/1999/xlink" width="18px" height="18px" viewBox="0 0 18 18" version="1.1">
<g id="surface1">
<path style=" stroke:none;fill-rule:nonzero;fill:rgb(0%,0%,0%);fill-opacity:1;" d="M 16.746094 13.816406 C 17.292969 14.59375 18 15.488281 18 16.125 C 18 17.160156 17.160156 18 16.125 18 C 15.089844 18 14.25 17.160156 14.25 16.125 C 14.25 15.542969 14.972656 14.617188 15.519531 13.824219 C 15.660156 13.625 15.886719 13.503906 16.128906 13.5 C 16.375 13.5 16.605469 13.617188 16.746094 13.816406 Z M 16.089844 10.925781 L 10.222656 16.792969 C 8.613281 18.398438 6.003906 18.398438 4.390625 16.792969 L 1.207031 13.609375 C -0.402344 12 -0.402344 9.386719 1.207031 7.777344 L 4.070312 4.914062 L 1.828125 2.671875 C 1.390625 2.230469 1.390625 1.519531 1.828125 1.078125 C 2.269531 0.640625 2.980469 0.640625 3.421875 1.078125 L 5.664062 3.320312 L 7.074219 1.910156 C 6.667969 1.464844 6.683594 0.777344 7.113281 0.355469 C 7.542969 -0.0703125 8.230469 -0.0820312 8.671875 0.328125 L 17.671875 9.328125 C 18.082031 9.769531 18.070312 10.457031 17.644531 10.886719 C 17.222656 11.316406 16.535156 11.332031 16.089844 10.925781 Z M 14.496094 9.335938 L 8.664062 3.503906 L 7.253906 4.914062 L 10.171875 7.828125 C 10.609375 8.269531 10.609375 8.980469 10.171875 9.421875 C 9.730469 9.859375 9.019531 9.859375 8.578125 9.421875 L 5.664062 6.503906 L 2.800781 9.367188 C 2.066406 10.097656 2.066406 11.285156 2.800781 12.019531 L 5.980469 15.199219 C 6.714844 15.933594 7.902344 15.933594 8.632812 15.199219 Z M 14.496094 9.335938 "/>
</g>
</svg>
