<?xml version="1.0" encoding="UTF-8"?>
<svg xmlns="http://www.w3.org/2000/svg" xmlns:xlink="http://www.w3.org/1999/xlink" width="18px" height="18px" viewBox="0 0 18 18" version="1.1">
<g id="surface1">
<path style=" stroke:none;fill-rule:nonzero;fill:rgb(0%,0%,0%);fill-opacity:1;" d="M 12.488281 11.660156 C 12.882812 12.136719 12.816406 12.839844 12.347656 13.234375 C 11.609375 13.84375 10.699219 14.199219 9.746094 14.25 C 9.140625 14.242188 8.5625 14.019531 8.109375 13.621094 C 8.054688 13.570312 7.996094 13.527344 7.933594 13.488281 C 7.632812 13.597656 7.351562 13.765625 7.109375 13.976562 C 6.640625 14.371094 5.9375 14.320312 5.535156 13.855469 C 5.128906 13.390625 5.171875 12.6875 5.632812 12.277344 C 6.28125 11.691406 7.105469 11.332031 7.976562 11.25 C 8.539062 11.261719 9.082031 11.472656 9.5 11.851562 C 9.691406 12 9.703125 12 9.746094 12 C 10.171875 11.949219 10.574219 11.777344 10.90625 11.507812 C 11.386719 11.113281 12.09375 11.183594 12.488281 11.660156 Z M 11.625 7.5 L 6.375 7.5 C 5.753906 7.5 5.25 8.003906 5.25 8.625 C 5.25 9.246094 5.753906 9.75 6.375 9.75 L 11.625 9.75 C 12.246094 9.75 12.75 9.246094 12.75 8.625 C 12.75 8.003906 12.246094 7.5 11.625 7.5 Z M 16.5 5.367188 L 16.5 13.875 C 16.496094 16.152344 14.652344 17.996094 12.375 18 L 5.625 18 C 3.347656 17.996094 1.503906 16.152344 1.5 13.875 L 1.5 4.125 C 1.503906 1.847656 3.347656 0.00390625 5.625 0 L 11.132812 0 C 12.226562 -0.00390625 13.277344 0.433594 14.050781 1.207031 L 15.292969 2.449219 C 16.066406 3.222656 16.503906 4.273438 16.5 5.367188 Z M 14.25 13.875 L 14.25 5.25 L 12.75 5.25 C 11.921875 5.25 11.25 4.578125 11.25 3.75 L 11.25 2.25 L 5.625 2.25 C 4.589844 2.25 3.75 3.089844 3.75 4.125 L 3.75 13.875 C 3.75 14.910156 4.589844 15.75 5.625 15.75 L 12.375 15.75 C 13.410156 15.75 14.25 14.910156 14.25 13.875 Z M 14.25 13.875 "/>
</g>
</svg>
