<?xml version="1.0" encoding="UTF-8"?>
<svg xmlns="http://www.w3.org/2000/svg" xmlns:xlink="http://www.w3.org/1999/xlink" width="18pt" height="18pt"
    viewBox="0 0 18 18" version="1.1">
    <g id="surface1">
        <path style=" stroke:none;fill-rule:nonzero;fill:white;fill-opacity:1;"
            d="M 3 3 L 15 3 C 15.828125 3 16.5 3.671875 16.5 4.5 L 16.5 13.5 C 16.5 14.328125 15.828125 15 15 15 L 3 15 C 2.171875 15 1.5 14.328125 1.5 13.5 L 1.5 4.5 C 1.5 3.671875 2.171875 3 3 3 M 3 4.5 L 3 13.5 L 8.25 13.5 L 8.25 4.5 L 3 4.5 M 15 13.5 L 15 4.5 L 14.070312 4.5 C 14.25 4.90625 14.210938 5.300781 14.210938 5.347656 C 14.160156 5.851562 13.808594 6.375 13.679688 6.5625 L 11.933594 8.476562 L 14.421875 8.460938 L 14.429688 9.375 L 10.53125 9.351562 L 10.5 8.601562 C 10.5 8.601562 12.789062 6.179688 12.898438 5.960938 C 13.003906 5.753906 13.433594 4.5 12.375 4.5 C 11.453125 4.539062 11.558594 5.476562 11.558594 5.476562 L 10.402344 5.484375 C 10.402344 5.484375 10.410156 4.988281 10.6875 4.5 L 9.75 4.5 L 9.75 13.5 L 11.683594 13.5 L 11.675781 12.855469 L 12.40625 12.847656 C 12.40625 12.847656 13.085938 12.726562 13.09375 12.058594 C 13.125 11.308594 12.488281 11.308594 12.375 11.308594 C 12.277344 11.308594 11.574219 11.347656 11.574219 11.960938 L 10.433594 11.960938 C 10.433594 11.960938 10.460938 10.417969 12.375 10.417969 C 14.324219 10.417969 14.21875 11.933594 14.21875 11.933594 C 14.21875 11.933594 14.25 12.871094 13.386719 13.222656 L 13.777344 13.5 L 15 13.5 M 6.691406 12 L 5.566406 12 L 5.566406 7.648438 L 4.214844 8.070312 L 4.214844 7.148438 L 6.570312 6.308594 L 6.691406 6.308594 Z M 6.691406 12 " />
    </g>
</svg>