<?xml version="1.0" encoding="UTF-8"?>
<svg xmlns="http://www.w3.org/2000/svg" xmlns:xlink="http://www.w3.org/1999/xlink" width="18px" height="18px" viewBox="0 0 18 18" version="1.1">
<g id="surface1">
<path style=" stroke:none;fill-rule:nonzero;fill:rgb(0%,0%,0%);fill-opacity:1;" d="M 6.859375 18 C 4.128906 18 1.671875 16.359375 0.625 13.835938 C -0.417969 11.316406 0.15625 8.414062 2.085938 6.484375 L 7.144531 1.425781 C 9.0625 -0.398438 12.082031 -0.359375 13.953125 1.511719 C 15.820312 3.382812 15.859375 6.402344 14.035156 8.316406 L 8.980469 13.375 C 7.800781 14.511719 5.929688 14.496094 4.773438 13.339844 C 3.617188 12.179688 3.601562 10.308594 4.738281 9.132812 L 9.53125 4.339844 L 11.121094 5.933594 L 6.328125 10.726562 C 6.132812 10.914062 6.054688 11.191406 6.125 11.453125 C 6.191406 11.714844 6.398438 11.921875 6.660156 11.988281 C 6.921875 12.058594 7.199219 11.980469 7.390625 11.785156 L 12.449219 6.730469 C 13.132812 6.070312 13.40625 5.09375 13.164062 4.175781 C 12.925781 3.257812 12.207031 2.542969 11.292969 2.300781 C 10.375 2.0625 9.398438 2.335938 8.738281 3.019531 L 3.675781 8.074219 C 1.96875 9.839844 1.992188 12.648438 3.730469 14.382812 C 5.464844 16.121094 8.273438 16.144531 10.039062 14.4375 L 14.828125 9.644531 L 16.425781 11.238281 L 11.632812 16.027344 C 10.367188 17.292969 8.648438 18.003906 6.859375 18 Z M 6.859375 18 "/>
</g>
</svg>
