<?xml version="1.0" encoding="UTF-8"?>
<svg xmlns="http://www.w3.org/2000/svg" xmlns:xlink="http://www.w3.org/1999/xlink" width="18pt" height="18pt"
    viewBox="0 0 18 18" version="1.1">
    <g id="surface1">
        <path style=" stroke:none;fill-rule:nonzero;fill:white;fill-opacity:1;"
            d="M 1.5 9 C 1.5 12.726562 4.523438 15.75 8.25 15.75 C 10.042969 15.75 11.761719 15.046875 13.050781 13.800781 L 11.925781 12.675781 C 10.972656 13.6875 9.644531 14.25 8.25 14.25 C 3.570312 14.25 1.230469 8.59375 4.539062 5.289062 C 7.84375 1.980469 13.5 4.328125 13.5 9 L 11.25 9 L 14.25 12 L 14.324219 12 L 17.25 9 L 15 9 C 15 5.273438 11.976562 2.25 8.25 2.25 C 4.523438 2.25 1.5 5.273438 1.5 9 Z M 1.5 9 " />
    </g>
</svg>