<?xml version="1.0" encoding="UTF-8"?>
<svg xmlns="http://www.w3.org/2000/svg" xmlns:xlink="http://www.w3.org/1999/xlink" width="18pt" height="18pt"
    viewBox="0 0 18 18" version="1.1">
    <g id="surface1">
        <path style=" stroke:none;fill-rule:nonzero;fill:white;fill-opacity:1;"
            d="M 14.25 9 L 14.25 10.125 C 15.90625 10.125 17.25 11.46875 17.25 13.125 C 17.25 13.738281 17.0625 14.308594 16.746094 14.78125 L 15.929688 13.964844 C 16.058594 13.710938 16.125 13.425781 16.125 13.125 C 16.125 12.089844 15.285156 11.25 14.25 11.25 L 14.25 12.375 L 12.5625 10.6875 L 14.25 9 M 14.25 17.25 L 14.25 16.125 C 12.59375 16.125 11.25 14.78125 11.25 13.125 C 11.25 12.511719 11.4375 11.941406 11.753906 11.46875 L 12.570312 12.285156 C 12.441406 12.539062 12.375 12.824219 12.375 13.125 C 12.375 14.160156 13.214844 15 14.25 15 L 14.25 13.875 L 15.9375 15.5625 L 14.25 17.25 M 9 2.25 C 12.316406 2.25 15 3.59375 15 5.25 C 15 6.90625 12.316406 8.25 9 8.25 C 5.683594 8.25 3 6.90625 3 5.25 C 3 3.59375 5.683594 2.25 9 2.25 M 3 6.75 C 3 8.40625 5.683594 9.75 9 9.75 C 9.832031 9.75 10.628906 9.667969 11.355469 9.511719 C 10.640625 10.15625 10.125 11.003906 9.886719 11.96875 L 9 12 C 5.683594 12 3 10.65625 3 9 L 3 6.75 M 15 6.75 L 15 8.25 L 14.625 8.25 L 14.175781 8.273438 C 14.699219 7.824219 15 7.304688 15 6.75 M 3 10.5 C 3 12.15625 5.683594 13.5 9 13.5 L 9.75 13.476562 C 9.816406 14.273438 10.066406 15 10.460938 15.660156 L 9 15.75 C 5.683594 15.75 3 14.40625 3 12.75 Z M 3 10.5 " />
    </g>
</svg>